<svg width="112" height="104" viewBox="0 0 112 104" fill="none" xmlns="http://www.w3.org/2000/svg">
<path d="M55.8223 78.6943L76.9076 90.2672M55.8223 78.6943L55.8873 56.8466M55.8223 78.6943L35.8118 89.7355M86.6199 57.3497L104.642 41.79M86.6199 57.3497L64.7406 50.6367M86.6199 57.3497L91.5925 78.8242M25.2697 57.5451L20.314 80.1993M25.2697 57.5451L47.1228 50.7555M25.2697 57.5451L7.96364 42.9493M74.8487 23.2759L64.845 2.18029M74.8487 23.2759L61.3689 40.9747M74.8487 23.2759L97.8779 25.4179M37.0237 23.3601L12.8189 25.8819M37.0237 23.3601L50.572 41.0116M37.0237 23.3601L46.284 3.20943M34.6931 90.3737L34.6922 67.1198L55.8846 55.492L77.0778 67.1183L77.0787 90.3723L55.8863 102L34.6931 90.3737ZM91.8915 80.0311L68.5825 72.9493L63.3821 50.2265L81.4906 34.5854L104.8 41.6672L110 64.39L91.8915 80.0311ZM6.97521 42.1398L30.213 34.85L48.4756 50.3285L43.5004 73.0968L20.2626 80.3866L2 64.9081L6.97521 42.1398ZM99.1782 25.5207L84.8876 44.3977L60.5386 42.0758L50.4801 20.877L64.7707 2L89.1198 4.32188L99.1782 25.5207ZM46.7887 2.06604L61.2655 20.8144L51.4174 42.1022L27.0924 44.6417L12.6156 25.8933L22.4637 4.60551L46.7887 2.06604Z" stroke="url(#paint0_linear_46_85)" stroke-width="3"/>
<defs>
<linearGradient id="paint0_linear_46_85" x1="26.5575" y1="18.6247" x2="99.3352" y2="90.595" gradientUnits="userSpaceOnUse">
<stop stop-color="#07FDFB"/>
<stop offset="1" stop-color="#0167FF"/>
</linearGradient>
</defs>
</svg>
